<svg xmlns="http://www.w3.org/2000/svg" width="20" height="20" viewBox="0 0 20 20">
    <path d="M16.218 3.782C14.424 1.988 12.038 1 9.5 1s-4.923.988-6.718 2.782C.988 5.576 0 7.962 0 10.499s.988 4.923 2.782 6.718 4.18 2.782 6.718 2.782 4.923-.988 6.718-2.782S19 13.037 19 10.499s-.988-4.923-2.782-6.717zM9.5 19C4.813 19 1 15.187 1 10.5S4.813 2 9.5 2 18 5.813 18 10.5 14.187 19 9.5 19z"/>
    <path d="M15.129 7.25c-.138-.239-.444-.321-.683-.183l-4.92 2.841-3.835-2.685c-.226-.158-.538-.103-.696.123s-.103.538.123.696l4.096 2.868.003.002.026.016.007.004.027.014.006.003.031.014.019.007.014.005.02.006.013.003.02.005.014.003.019.003.018.002.016.002.035.001.057-.003h.001c.018-.002.037-.006.055-.01l.004-.001c.017-.004.034-.009.051-.016l.007-.003c.016-.006.032-.013.047-.021l.009-.005.017-.009 5.196-3c.239-.138.321-.444.183-.683z"/>
</svg>
