<svg xmlns="http://www.w3.org/2000/svg" width="20" height="20" viewBox="0 0 20 20">
    <path d="M17.854 5.646l-4.5-4.5C13.26 1.052 13.133 1 13 1H3.5C2.673 1 2 1.673 2 2.5v16c0 .827.673 1.5 1.5 1.5h13c.827 0 1.5-.673 1.5-1.5V6c0-.133-.053-.26-.146-.354zM16.793 6H13.5c-.276 0-.5-.224-.5-.5V2.207L16.793 6zM16.5 19h-13c-.276 0-.5-.224-.5-.5v-16c0-.276.224-.5.5-.5H12v3.5c0 .827.673 1.5 1.5 1.5H17v11.5c0 .276-.224.5-.5.5z"/>
    <path d="M14.5 14h-1c-.276 0-.5-.224-.5-.5s.224-.5.5-.5h1c.276 0 .5.224.5.5s-.224.5-.5.5zM14.5 16h-1c-.276 0-.5-.224-.5-.5s.224-.5.5-.5h1c.276 0 .5.224.5.5s-.224.5-.5.5zM8.5 10c-.276 0-.5.224-.5.5v.5c-1.654 0-3 1.346-3 3s1.346 3 3 3 3-1.346 3-3h.5c.276 0 .5-.224.5-.5 0-1.93-1.57-3.5-3.5-3.5zm.5 1.05c.978.199 1.75.972 1.95 1.95H9v-1.95zM8 16c-1.103 0-2-.897-2-2s.897-2 2-2v1.5c0 .276.224.5.5.5H10c0 1.103-.897 2-2 2zM14.5 12h-1c-.276 0-.5-.224-.5-.5s.224-.5.5-.5h1c.276 0 .5.224.5.5s-.224.5-.5.5z"/>
</svg>
