<svg xmlns="http://www.w3.org/2000/svg" width="20" height="20" viewBox="0 0 20 20">
    <path d="M18.5 5H11c-.086 0-.238-.094-.276-.171l-.553-1.106c-.206-.413-.71-.724-1.171-.724H2c-.461 0-.965.311-1.171.724L.276 4.829C.118 5.144 0 5.647 0 6v10.5c0 .827.673 1.5 1.5 1.5h17c.827 0 1.5-.673 1.5-1.5v-10c0-.827-.673-1.5-1.5-1.5zm.5 11.5c0 .276-.224.5-.5.5h-17c-.276 0-.5-.224-.5-.5V6c0-.196.083-.548.171-.724l.553-1.106c.038-.077.191-.171.276-.171h7c.086 0 .238.094.276.171l.553 1.106c.206.413.71.724 1.171.724h7.5c.276 0 .5.224.5.5v10z"/>
</svg>
