<svg xmlns="http://www.w3.org/2000/svg" width="20" height="20" viewBox="0 0 20 20">
    <path d="M17.854 5.646l-4.5-4.5C13.26 1.052 13.133 1 13 1H3.5C2.673 1 2 1.673 2 2.5v16c0 .827.673 1.5 1.5 1.5h13c.827 0 1.5-.673 1.5-1.5V6c0-.133-.053-.26-.146-.354zM16.793 6H13.5c-.276 0-.5-.224-.5-.5V2.207L16.793 6zM16.5 19h-13c-.276 0-.5-.224-.5-.5v-16c0-.276.224-.5.5-.5H12v3.5c0 .827.673 1.5 1.5 1.5H17v11.5c0 .276-.224.5-.5.5z"/>
    <path d="M11.5 14c-.827 0-1.5-.673-1.5-1.5s.673-1.5 1.5-1.5 1.5.673 1.5 1.5-.673 1.5-1.5 1.5zm0-2c-.276 0-.5.224-.5.5s.224.5.5.5.5-.224.5-.5-.224-.5-.5-.5z"/>
    <path d="M14.5 9h-9c-.276 0-.5.224-.5.5v7c0 .276.224.5.5.5h9c.276 0 .5-.224.5-.5v-7c0-.276-.224-.5-.5-.5zM6 14.675l1.266-1.582c.073-.091.164-.142.259-.144s.189.044.266.131L10.387 16H6v-1.325zM14 16h-2.275l-3.187-3.585c-.272-.306-.652-.476-1.039-.466s-.758.199-1.014.519L6 13.074V9.999h8v6z"/>
</svg>
