<svg xmlns="http://www.w3.org/2000/svg" width="20" height="20" viewBox="0 0 20 20">
    <path d="M18.5 17h-17C.673 17 0 16.327 0 15.5v-11C0 3.673.673 3 1.5 3h17c.827 0 1.5.673 1.5 1.5v11c0 .827-.673 1.5-1.5 1.5zM1.5 4c-.276 0-.5.224-.5.5v11c0 .276.224.5.5.5h17c.276 0 .5-.224.5-.5v-11c0-.276-.224-.5-.5-.5h-17z"/>
    <path d="M8.501 14H3.5c-.276 0-.5-.224-.5-.5 0-.066.011-.661.388-1.265C3.74 11.672 4.479 11 6 11s2.259.672 2.612 1.235c.338.541.382 1.074.388 1.227l.001.038c0 .276-.224.5-.5.5zm-4.384-1h3.766c-.035-.086-.081-.177-.14-.267C7.421 12.246 6.835 12 6 12s-1.421.247-1.743.733c-.059.09-.105.18-.14.267zM16.5 8h-5c-.276 0-.5-.224-.5-.5s.224-.5.5-.5h5c.276 0 .5.224.5.5s-.224.5-.5.5zM15.5 10h-4c-.276 0-.5-.224-.5-.5s.224-.5.5-.5h4c.276 0 .5.224.5.5s-.224.5-.5.5zM15.5 12h-4c-.276 0-.5-.224-.5-.5s.224-.5.5-.5h4c.276 0 .5.224.5.5s-.224.5-.5.5zM6 10c-1.103 0-2-.897-2-2s.897-2 2-2 2 .897 2 2-.897 2-2 2zm0-3c-.551 0-1 .449-1 1s.449 1 1 1 1-.449 1-1-.449-1-1-1zM16.5 14h-5c-.276 0-.5-.224-.5-.5s.224-.5.5-.5h5c.276 0 .5.224.5.5s-.224.5-.5.5z"/>
</svg>
