<svg xmlns="http://www.w3.org/2000/svg" width="20" height="20" viewBox="0 0 20 20">
    <path d="M17.854 5.646l-4.5-4.5C13.26 1.052 13.133 1 13 1H3.5C2.673 1 2 1.673 2 2.5v16c0 .827.673 1.5 1.5 1.5h13c.827 0 1.5-.673 1.5-1.5V6c0-.133-.053-.26-.146-.354zM16.793 6H13.5c-.276 0-.5-.224-.5-.5V2.207L16.793 6zM16.5 19h-13c-.276 0-.5-.224-.5-.5v-16c0-.276.224-.5.5-.5H12v3.5c0 .827.673 1.5 1.5 1.5H17v11.5c0 .276-.224.5-.5.5z"/>
    <path d="M14.234 10.676c-.136 0-.272.034-.405.1L12 11.691V11.5c0-.827-.673-1.5-1.5-1.5h-4c-.827 0-1.5.673-1.5 1.5v4c0 .827.673 1.5 1.5 1.5h4c.827 0 1.5-.673 1.5-1.5v-.191l1.829.915c.133.067.269.1.405.1.227 0 .43-.093.574-.263.126-.149.192-.343.192-.561v-4c0-.47-.329-.824-.766-.824zM11 15.5c0 .276-.224.5-.5.5h-4c-.276 0-.5-.224-.5-.5v-4c0-.276.224-.5.5-.5h4c.276 0 .5.224.5.5v4zm3-.309l-1.829-.915C12.094 14.238 12 14.085 12 14v-1c0-.086.094-.238.171-.276L14 11.81v3.382z"/>
</svg>
